HIERARCHY
ROOT SimulationBone
{
	OFFSET 0.000000 0.000000 0.000000
	CHANNELS 6 Xposition Yposition Zposition Zrotation Yrotation Xrotation 
	JOINT Hips
	{
		OFFSET 0.000000 0.000000 0.000000
		CHANNELS 6 Xposition Yposition Zposition Zrotation Yrotation Xrotation 
		JOINT LeftUpLeg
		{
			OFFSET 0.103457 1.857818 10.548502
			CHANNELS 3 Zrotation Yrotation Xrotation
			JOINT LeftLeg
			{
				OFFSET 43.500000 -0.000011 -0.000004
				CHANNELS 3 Zrotation Yrotation Xrotation
				JOINT LeftFoot
				{
					OFFSET 42.372192 -0.000004 -0.000008
					CHANNELS 3 Zrotation Yrotation Xrotation
					JOINT LeftToe
					{
						OFFSET 17.300014 0.000006 0.000001
						CHANNELS 3 Zrotation Yrotation Xrotation
						End Site
						{
							OFFSET 0.000000 0.000000 0.000000
						}
					}
				}
			}
		}
		JOINT RightUpLeg
		{
			OFFSET 0.103457 1.857817 -10.548505
			CHANNELS 3 Zrotation Yrotation Xrotation
			JOINT RightLeg
			{
				OFFSET 43.500046 -0.000004 0.000011
				CHANNELS 3 Zrotation Yrotation Xrotation
				JOINT RightFoot
				{
					OFFSET 42.372257 0.000000 0.000015
					CHANNELS 3 Zrotation Yrotation Xrotation
					JOINT RightToe
					{
						OFFSET 17.300003 -0.000000 0.000002
						CHANNELS 3 Zrotation Yrotation Xrotation
						End Site
						{
							OFFSET 0.000000 0.000000 0.000000
						}
					}
				}
			}
		}
		JOINT Spine
		{
			OFFSET 6.901961 -2.603721 -0.000001
			CHANNELS 3 Zrotation Yrotation Xrotation
			JOINT Spine1
			{
				OFFSET 12.588108 0.000002 -0.000001
				CHANNELS 3 Zrotation Yrotation Xrotation
				JOINT Spine2
				{
					OFFSET 12.343199 -0.000020 0.000006
					CHANNELS 3 Zrotation Yrotation Xrotation
					JOINT Neck
					{
						OFFSET 25.832905 0.000017 0.000000
						CHANNELS 3 Zrotation Yrotation Xrotation
						JOINT Head
						{
							OFFSET 11.766604 -0.000006 0.000004
							CHANNELS 3 Zrotation Yrotation Xrotation
							End Site
							{
								OFFSET 0.000000 0.000000 0.000000
							}
						}
					}
					JOINT LeftShoulder
					{
						OFFSET 19.745903 -1.480350 6.000100
						CHANNELS 3 Zrotation Yrotation Xrotation
						JOINT LeftArm
						{
							OFFSET 11.284130 -0.000016 -0.000016
							CHANNELS 3 Zrotation Yrotation Xrotation
							JOINT LeftForeArm
							{
								OFFSET 33.000046 0.000004 0.000031
								CHANNELS 3 Zrotation Yrotation Xrotation
								JOINT LeftHand
								{
									OFFSET 25.199999 0.000027 0.000001
									CHANNELS 3 Zrotation Yrotation Xrotation
									End Site
									{
										OFFSET 0.000000 0.000000 0.000000
									}
								}
							}
						}
					}
					JOINT RightShoulder
					{
						OFFSET 19.746094 -1.480375 -6.000080
						CHANNELS 3 Zrotation Yrotation Xrotation
						JOINT RightArm
						{
							OFFSET 11.284131 -0.000016 -0.000017
							CHANNELS 3 Zrotation Yrotation Xrotation
							JOINT RightForeArm
							{
								OFFSET 33.000095 0.000009 0.000020
								CHANNELS 3 Zrotation Yrotation Xrotation
								JOINT RightHand
								{
									OFFSET 25.199789 0.000132 0.000423
									CHANNELS 3 Zrotation Yrotation Xrotation
									End Site
									{
										OFFSET 0.000000 0.000000 0.000000
									}
								}
							}
						}
					}
				}
			}
		}
	}
}
MOTION
Frames: 9
Frame Time: 0.016667
265.016558 0.000000 -568.876311 0.000000 -68.764011 0.000000 -7.271325 79.256111 0.169399 81.528675 0.771235 -178.573825 168.693173 -11.197299 164.426737 -65.668634 1.218616 -18.758363 67.989888 5.068394 -24.388918 21.454551 0.003092 0.000002 149.978741 -6.728801 -168.512419 -62.122304 -1.171195 10.559758 105.333291 -6.932150 -0.121527 21.454555 -0.003105 -0.000016 9.278926 0.308295 -1.890984 8.532841 0.755002 -3.754125 8.215444 0.732465 -3.758600 7.238146 -6.958510 -7.853798 -24.279208 19.654242 -17.689678 168.426289 -76.571306 10.305039 -13.454920 63.519200 -14.922533 -103.167985 -1.933656 3.024936 -5.658656 -10.068209 33.780708 -156.330078 72.164599 25.718317 11.199190 -64.042898 -32.371974 -60.703285 15.788819 -2.211321 -27.290558 21.186998 -34.608974 
265.564561 0.000000 -567.348284 0.000000 -70.274280 0.000000 -7.227346 78.241423 0.313850 82.319690 1.100124 -178.218610 166.254480 -11.847063 168.118179 -72.745411 1.169062 -15.844018 63.558809 4.992226 -16.636841 21.454561 0.003096 -0.000007 152.022426 -6.608978 -167.846959 -62.861407 -1.141427 9.683040 108.818528 -6.279836 -0.617419 21.454559 -0.003108 -0.000018 9.561726 0.474441 -1.513906 9.097084 1.066288 -2.985878 8.779389 1.048390 -2.992243 8.365540 -6.343096 -8.206308 -24.801678 19.077178 -17.788953 168.967096 -76.088293 9.769457 -12.242973 63.591639 -14.077201 -100.042952 -2.643518 2.939816 -0.893874 -5.640714 39.332837 -157.925495 71.897470 24.083740 5.253161 -63.631554 -27.242020 -61.833057 15.688045 -2.248772 -27.664271 22.337227 -34.707487 
266.088962 0.000000 -565.613482 0.000000 -71.661803 0.000000 -7.237716 77.434723 0.385252 83.096646 1.390234 -178.217692 163.803127 -11.928498 171.235315 -79.309465 1.319425 -13.254378 63.821444 4.584165 -12.768671 21.454560 0.003093 -0.000005 154.062333 -6.746699 -167.843566 -63.525908 -1.095693 8.968078 111.091100 -5.744756 -1.026859 21.454562 -0.003107 -0.000017 9.855861 0.623081 -1.110537 9.686899 1.336843 -2.165126 9.368951 1.323888 -2.173142 9.142337 -5.764761 -8.499289 -25.100162 18.499829 -17.806260 169.634809 -75.642961 9.103047 -10.530255 63.796635 -12.725520 -97.223309 -3.236558 2.852498 4.400912 -2.153651 47.872061 -159.784488 71.645929 22.176267 -1.602473 -62.611891 -21.424520 -62.787804 15.612989 -2.279355 -28.096225 23.177946 -35.123007 
266.590800 0.000000 -563.684817 0.000000 -72.927659 0.000000 -7.309711 76.829969 0.394229 83.749866 1.633394 -178.485156 161.176827 -11.591922 173.778661 -85.206640 1.627012 -11.184363 66.378804 3.895387 -11.167454 21.454553 0.003089 0.000000 156.115632 -7.036363 -168.388648 -63.897148 -1.014183 8.380567 112.543510 -5.310568 -1.347373 21.454562 -0.003105 -0.000015 10.131148 0.749035 -0.707369 10.241260 1.557665 -1.345765 9.923128 1.549643 -1.355135 9.614396 -5.326286 -8.725492 -25.236588 17.964657 -17.769849 170.681412 -75.232453 8.047758 -8.011162 64.070640 -10.332034 -94.796950 -3.819813 2.783778 9.845583 -0.057455 58.506870 -161.848962 71.458664 20.054804 -8.517596 -61.051434 -15.623119 -63.744502 15.505837 -2.308925 -28.598466 23.656581 -35.843287 
267.071113 0.000000 -561.575202 0.000000 -74.074006 0.000000 -7.449114 76.421120 0.351198 84.169881 1.821531 -178.935282 158.184886 -10.971999 175.762323 -90.268824 2.012371 -9.829634 68.879800 3.461399 -10.189288 21.454551 0.003088 0.000003 158.202071 -7.380495 -169.362996 -63.756700 -0.874562 7.887052 113.566005 -4.953326 -1.563573 21.454562 -0.003103 -0.000015 10.357202 0.847792 -0.331072 10.698399 1.722490 -0.582360 10.380161 1.719071 -0.592744 9.827941 -5.129266 -8.876915 -25.271767 17.513513 -17.706499 172.334428 -74.847688 6.369986 -4.371737 64.304938 -6.353723 -92.852691 -4.501109 2.746543 14.777697 0.508866 70.282625 -164.090089 71.385671 17.749012 -14.871320 -59.118502 -10.310093 -64.879406 15.308419 -2.340540 -29.174496 23.719665 -36.850987 
267.530940 0.000000 -559.297549 0.000000 -75.103864 0.000000 -7.655209 76.213603 0.266454 84.269675 1.934054 -179.483286 154.702723 -10.169226 177.194635 -94.322516 2.381101 -9.338702 69.606379 3.683008 -8.638270 21.454556 0.003093 -0.000001 160.343738 -7.674571 -170.634388 -62.914812 -0.659247 7.451529 114.438284 -4.644235 -1.675597 21.454559 -0.003104 -0.000017 10.508344 0.913099 -0.001137 11.005918 1.822068 0.084643 10.687643 1.822683 0.073643 9.833950 -5.244367 -8.957860 -25.261855 17.182785 -17.650969 174.731516 -74.474807 3.927586 0.568521 64.330332 -0.496804 -91.455051 -5.319280 2.743155 18.521479 -0.141924 82.218516 -166.460482 71.469547 15.308672 -20.321603 -57.061821 -5.674772 -66.364734 14.965567 -2.375775 -29.810291 23.339320 -38.107230 
267.971321 0.000000 -556.864771 0.000000 -76.020930 0.000000 -7.905310 76.258713 0.150116 84.050175 1.904924 179.952300 150.933711 -9.189193 178.038825 -97.193297 2.664789 -9.688505 69.383588 4.345735 -7.385784 21.454562 0.003098 -0.000006 162.575264 -7.763202 -172.033190 -61.295544 -0.374390 7.021497 115.005700 -4.350748 -1.777219 21.454557 -0.003106 -0.000019 10.578161 0.929679 0.292044 11.150275 1.826769 0.672445 10.832023 1.830940 0.661408 9.703459 -5.622123 -9.029080 -25.247865 16.987621 -17.675105 177.732136 -74.116715 0.863013 6.516232 63.992225 6.596452 -90.568656 -6.036642 2.752578 20.788900 -1.204775 92.967124 -168.731339 71.725528 12.971123 -24.741190 -55.199401 -1.684906 -68.359777 14.434751 -2.420336 -30.455293 22.594216 -39.508876 
268.393292 0.000000 -554.289781 0.000000 -76.829408 0.000000 -8.175710 76.596089 0.009637 83.541668 1.675352 179.441366 147.108556 -8.046731 178.290432 -98.759756 2.841254 -10.679721 69.395590 5.064825 -7.404507 21.454557 0.003098 -0.000005 164.918725 -7.520625 -173.399184 -58.872975 -0.030284 6.550040 115.032051 -4.045669 -1.939671 21.454555 -0.003107 -0.000018 10.568403 0.883438 0.568106 11.134294 1.707991 1.218755 10.816123 1.715458 1.208429 9.499491 -6.178902 -9.162521 -25.257118 16.936716 -17.854870 -178.882744 -73.788989 -2.600282 12.958008 63.199670 14.016106 -90.127472 -6.412822 2.758275 21.678789 -1.832526 101.268439 -170.634101 72.165133 11.014415 -28.131586 -53.826542 1.804303 -70.977223 13.673191 -2.474760 -31.043684 21.610765 -40.917574 
268.797894 0.000000 -551.585489 0.000000 -77.533878 0.000000 -8.462436 77.172867 -0.152008 82.805094 1.265665 179.002122 143.257985 -6.812995 178.112031 -99.141493 2.909361 -11.571839 69.854386 5.561541 -7.966483 21.454551 0.003094 -0.000001 167.364305 -6.963800 -174.684342 -55.707247 0.362659 6.023456 114.392205 -3.731555 -2.044225 21.454555 -0.003108 -0.000017 10.494384 0.774707 0.857405 10.988244 1.464377 1.784667 10.670207 1.475260 1.775806 9.232629 -6.814726 -9.420329 -25.278261 17.034024 -18.246514 -175.447397 -73.537132 -6.120001 19.269467 61.928428 21.007752 -90.041392 -6.477874 2.760104 21.613019 -1.718593 106.629388 -171.939274 72.770785 9.675182 -30.552501 -53.068406 4.909889 -74.160813 12.627217 -2.536484 -31.472568 20.591929 -42.105800 
